<svg width="32" height="32" viewBox="0 0 32 32" fill="none" xmlns="http://www.w3.org/2000/svg">
<g id="behance-02">
<path id="Vector" fill-rule="evenodd" clip-rule="evenodd" d="M6.00004 2.3335C3.975 2.3335 2.33337 3.97512 2.33337 6.00016V26.0002C2.33337 28.0252 3.975 29.6668 6.00004 29.6668H26C28.0251 29.6668 29.6667 28.0252 29.6667 26.0002V6.00016C29.6667 3.97512 28.0251 2.3335 26 2.3335H6.00004ZM8.00004 9.66683C7.44776 9.66683 7.00004 10.1145 7.00004 10.6668V21.3335C7.00004 21.8858 7.44776 22.3335 8.00004 22.3335H12C14.0251 22.3335 15.6667 20.6919 15.6667 18.6668C15.6667 17.6162 15.2248 16.6687 14.5167 16.0002C15.2248 15.3316 15.6667 14.3842 15.6667 13.3335C15.6667 11.3085 14.0251 9.66683 12 9.66683H8.00004ZM13.6667 13.3335C13.6667 14.254 12.9205 15.0002 12 15.0002H9.00004V11.6668H12C12.9205 11.6668 13.6667 12.413 13.6667 13.3335ZM12 17.0002H9.00004V20.3335H12C12.9205 20.3335 13.6667 19.5874 13.6667 18.6668C13.6667 17.7463 12.9205 17.0002 12 17.0002ZM19 11.0002C18.4478 11.0002 18 11.4479 18 12.0002C18 12.5524 18.4478 13.0002 19 13.0002H22.3334C22.8856 13.0002 23.3334 12.5524 23.3334 12.0002C23.3334 11.4479 22.8856 11.0002 22.3334 11.0002H19ZM20.6667 13.3335C18.3596 13.3335 16.3334 15.1111 16.3334 17.3335V18.2224C16.3334 20.5567 18.3396 22.3335 20.6667 22.3335C22.239 22.3335 23.6414 21.5354 24.404 20.3047C24.695 19.8354 24.5503 19.219 24.081 18.9279C23.6115 18.637 22.9951 18.7818 22.7042 19.2511C22.3142 19.8804 21.562 20.3335 20.6667 20.3335C19.3576 20.3335 18.3998 19.3914 18.3367 18.3335H24C24.5523 18.3335 25 17.8858 25 17.3335C25 15.1111 22.9738 13.3335 20.6667 13.3335ZM20.6667 15.3335C21.5532 15.3335 22.2666 15.7688 22.6615 16.3335H18.6719C19.0668 15.7688 19.7802 15.3335 20.6667 15.3335Z" fill="white"/>
</g>
</svg>
