<svg width="32" height="32" viewBox="0 0 32 32" fill="none" xmlns="http://www.w3.org/2000/svg">
<path fill-rule="evenodd" clip-rule="evenodd" d="M2.33337 6.00016C2.33337 3.97512 3.975 2.3335 6.00004 2.3335H26C28.0251 2.3335 29.6667 3.97512 29.6667 6.00016V26.0002C29.6667 28.0252 28.0251 29.6668 26 29.6668H6.00004C3.975 29.6668 2.33337 28.0252 2.33337 26.0002V6.00016ZM22 16.0002C22 19.3139 19.3138 22.0002 16 22.0002C12.6863 22.0002 10 19.3139 10 16.0002C10 12.6865 12.6863 10.0002 16 10.0002C19.3138 10.0002 22 12.6865 22 16.0002ZM23.3438 10.0002C24.0802 10.0002 24.6771 9.4032 24.6771 8.66683C24.6771 7.93046 24.0802 7.3335 23.3438 7.3335H23.3318C22.5954 7.3335 21.9984 7.93044 21.9984 8.66683C21.9984 9.4032 22.5954 10.0002 23.3318 10.0002H23.3438Z" fill="white"/>
</svg>
