<svg width="32" height="32" viewBox="0 0 32 32" fill="none" xmlns="http://www.w3.org/2000/svg">
<g id="linkedin-01">
<path id="Vector" fill-rule="evenodd" clip-rule="evenodd" d="M6.00004 2.3335C3.975 2.3335 2.33337 3.97512 2.33337 6.00016V26.0002C2.33337 28.0252 3.975 29.6668 6.00004 29.6668H26C28.0251 29.6668 29.6667 28.0252 29.6667 26.0002V6.00016C29.6667 3.97512 28.0251 2.3335 26 2.3335H6.00004ZM11.012 8.49235C11.012 9.41283 10.2658 10.159 9.34535 10.159H9.33337C8.41289 10.159 7.66671 9.41283 7.66671 8.49235C7.66671 7.57187 8.41289 6.82568 9.33337 6.82568H9.34535C10.2658 6.82568 11.012 7.57187 11.012 8.49235ZM9.33493 11.3335C10.0713 11.3335 10.6683 11.9305 10.6683 12.6668V22.6668C10.6683 23.4032 10.0713 24.0002 9.33493 24.0002C8.59855 24.0002 8.0016 23.4032 8.0016 22.6668V12.6668C8.0016 11.9305 8.59855 11.3335 9.33493 11.3335ZM14.668 11.3335C15.4044 11.3335 16.0014 11.9305 16.0014 12.6668V12.7137C16.7858 12.2599 17.6966 12.0002 18.668 12.0002C21.6135 12.0002 24.0014 14.388 24.0014 17.3335V22.6668C24.0014 23.4032 23.4044 24.0002 22.668 24.0002C21.9316 24.0002 21.3347 23.4032 21.3347 22.6668V17.3335C21.3347 15.8607 20.1407 14.6668 18.668 14.6668C17.1952 14.6668 16.0014 15.8607 16.0014 17.3335V22.6668C16.0014 23.4032 15.4044 24.0002 14.668 24.0002C13.9316 24.0002 13.3347 23.4032 13.3347 22.6668V12.6668C13.3347 11.9305 13.9316 11.3335 14.668 11.3335Z" fill="white"/>
</g>
</svg>
