<svg width="198" height="14" viewBox="0 0 198 14" fill="none" xmlns="http://www.w3.org/2000/svg">
<path d="M0.7 4.1C0.7 3.23333 0.886667 2.53333 1.26 2C1.63333 1.46667 2.11333 1.05333 2.7 0.759999C3.3 0.453332 3.96667 0.253332 4.7 0.159999C5.43333 0.0533325 6.16 -9.53674e-07 6.88 -9.53674e-07C7.64 -9.53674e-07 8.38667 0.0466659 9.12 0.14C9.86667 0.219999 10.5333 0.406666 11.12 0.7C11.7067 0.993333 12.18 1.41333 12.54 1.96C12.9 2.50667 13.08 3.24 13.08 4.16H11.32C11.32 3.57333 11.1933 3.11333 10.94 2.78C10.6867 2.43333 10.3533 2.18 9.94 2.02C9.52667 1.84667 9.05333 1.74 8.52 1.7C7.98667 1.64667 7.44 1.62 6.88 1.62C6.36 1.62 5.83333 1.64 5.3 1.68C4.78 1.72 4.30667 1.82667 3.88 2C3.46667 2.16 3.12667 2.40667 2.86 2.74C2.59333 3.06 2.46 3.5 2.46 4.06C2.46 4.63333 2.65333 5.09333 3.04 5.44C3.44 5.78667 4.05333 6 4.88 6.08L9.6 6.5C10.7867 6.60667 11.7 6.92667 12.34 7.46C12.98 7.98 13.3 8.78 13.3 9.86C13.3 10.8067 13.1 11.5533 12.7 12.1C12.3 12.6467 11.78 13.06 11.14 13.34C10.5 13.62 9.78667 13.8 9 13.88C8.21333 13.96 7.44 14 6.68 14C5.94667 14 5.21333 13.9533 4.48 13.86C3.74667 13.7533 3.08 13.5533 2.48 13.26C1.89333 12.9533 1.41333 12.5333 1.04 12C0.68 11.4533 0.5 10.7333 0.5 9.84H2.26C2.26 10.3867 2.38667 10.8267 2.64 11.16C2.89333 11.4933 3.22667 11.7533 3.64 11.94C4.06667 12.1133 4.54667 12.2333 5.08 12.3C5.61333 12.3533 6.15333 12.38 6.7 12.38C7.3 12.38 7.88667 12.36 8.46 12.32C9.04667 12.28 9.57333 12.18 10.04 12.02C10.5067 11.86 10.88 11.62 11.16 11.3C11.4533 10.98 11.6 10.54 11.6 9.98C11.6 9.64667 11.54 9.37333 11.42 9.16C11.3133 8.93333 11.1533 8.75333 10.94 8.62C10.74 8.48667 10.4867 8.38667 10.18 8.32C9.88667 8.25333 9.56 8.2 9.2 8.16L4.46 7.72C3.24667 7.61333 2.31333 7.26 1.66 6.66C1.02 6.06 0.7 5.20667 0.7 4.1ZM24.7678 -9.53674e-07L30.3478 14H28.3878L27.0278 10.56H18.4478L16.9878 14H15.0278L20.9878 -9.53674e-07H22.8878L19.0478 8.96H26.4478L22.8878 -9.53674e-07H24.7678ZM34.6202 14H32.8602V-9.53674e-07H36.3802L41.4602 14L46.2202 -9.53674e-07H49.7002V14H47.9402V0.12H47.9202L43.2402 14H39.6802L34.6402 0.0399997H34.6202V14ZM52.2922 8.6V-9.53674e-07H54.0922V8.6C54.0922 9.38667 54.2322 10.02 54.5122 10.5C54.7922 10.98 55.1655 11.3533 55.6322 11.62C56.1122 11.8733 56.6655 12.0467 57.2922 12.14C57.9189 12.22 58.5722 12.26 59.2522 12.26C59.9055 12.26 60.5389 12.22 61.1522 12.14C61.7789 12.0467 62.3322 11.8667 62.8122 11.6C63.3055 11.3333 63.6989 10.96 63.9922 10.48C64.2989 10 64.4522 9.37333 64.4522 8.6V-9.53674e-07H66.2522V8.6C66.2522 9.72 66.0589 10.6333 65.6722 11.34C65.2989 12.0333 64.7855 12.58 64.1322 12.98C63.4922 13.3667 62.7455 13.6333 61.8922 13.78C61.0522 13.9267 60.1722 14 59.2522 14C58.3322 14 57.4522 13.9267 56.6122 13.78C55.7722 13.6333 55.0322 13.36 54.3922 12.96C53.7522 12.56 53.2389 12.0133 52.8522 11.32C52.4789 10.6133 52.2922 9.70667 52.2922 8.6ZM80.3731 -9.53674e-07V1.7H70.6531V6.1H80.3731V7.74H70.6531V12.28H80.3731V14H68.8531V-9.53674e-07H80.3731ZM84.7727 -9.53674e-07V12.28H93.7527V14H82.9727V-9.53674e-07H84.7727ZM101.954 14V-9.53674e-07H108.614C109.107 -9.53674e-07 109.614 0.0599991 110.134 0.179999C110.654 0.299999 111.121 0.493332 111.534 0.759999C111.961 1.01333 112.301 1.34667 112.554 1.76C112.807 2.17333 112.914 2.67333 112.874 3.26C112.834 3.74 112.667 4.14 112.374 4.46C112.094 4.78 111.747 5.04 111.334 5.24C110.921 5.42667 110.481 5.56 110.014 5.64C109.547 5.70667 109.121 5.74 108.734 5.74C109.347 5.78 109.927 5.89333 110.474 6.08C111.034 6.25333 111.521 6.50667 111.934 6.84C112.347 7.17333 112.674 7.58667 112.914 8.08C113.167 8.57333 113.294 9.16 113.294 9.84C113.294 10.6133 113.181 11.2667 112.954 11.8C112.727 12.3333 112.407 12.7667 111.994 13.1C111.581 13.42 111.087 13.6533 110.514 13.8C109.941 13.9333 109.307 14 108.614 14H101.954ZM103.754 5.74H108.294C108.654 5.74 109.001 5.69333 109.334 5.6C109.681 5.49333 109.987 5.34667 110.254 5.16C110.534 4.97333 110.754 4.75333 110.914 4.5C111.074 4.23333 111.154 3.94 111.154 3.62C111.154 3.27333 111.074 2.97333 110.914 2.72C110.767 2.46667 110.561 2.26 110.294 2.1C110.041 1.94 109.741 1.82667 109.394 1.76C109.047 1.68 108.681 1.64 108.294 1.64H103.754V5.74ZM108.434 7.34H103.754V12.36H108.434C108.901 12.36 109.314 12.32 109.674 12.24C110.047 12.16 110.367 12.0267 110.634 11.84C110.901 11.64 111.101 11.3733 111.234 11.04C111.381 10.7067 111.454 10.28 111.454 9.76C111.454 9.33333 111.374 8.97333 111.214 8.68C111.054 8.37333 110.841 8.12 110.574 7.92C110.307 7.72 109.987 7.57333 109.614 7.48C109.254 7.38667 108.861 7.34 108.434 7.34ZM127.418 -9.53674e-07V1.7H117.698V6.1H127.418V7.74H117.698V12.28H127.418V14H115.898V-9.53674e-07H127.418ZM131.817 -9.53674e-07V12.28H140.797V14H130.017V-9.53674e-07H131.817ZM153.055 -9.53674e-07L158.635 14H156.675L155.315 10.56H146.735L145.275 14H143.315L149.275 -9.53674e-07H151.175L147.335 8.96H154.735L151.175 -9.53674e-07H153.055ZM162.575 14L159.135 -9.53674e-07H160.895L164.395 13.94H164.415L167.975 -9.53674e-07H171.675L175.495 13.96H175.515L178.615 -9.53674e-07H180.455L177.335 14H173.655L169.835 0.0399997H169.815L166.235 14H162.575ZM183.059 8.6V-9.53674e-07H184.859V8.6C184.859 9.38667 184.999 10.02 185.279 10.5C185.559 10.98 185.933 11.3533 186.399 11.62C186.879 11.8733 187.433 12.0467 188.059 12.14C188.686 12.22 189.339 12.26 190.019 12.26C190.673 12.26 191.306 12.22 191.919 12.14C192.546 12.0467 193.099 11.8667 193.579 11.6C194.073 11.3333 194.466 10.96 194.759 10.48C195.066 10 195.219 9.37333 195.219 8.6V-9.53674e-07H197.019V8.6C197.019 9.72 196.826 10.6333 196.439 11.34C196.066 12.0333 195.553 12.58 194.899 12.98C194.259 13.3667 193.513 13.6333 192.659 13.78C191.819 13.9267 190.939 14 190.019 14C189.099 14 188.219 13.9267 187.379 13.78C186.539 13.6333 185.799 13.36 185.159 12.96C184.519 12.56 184.006 12.0133 183.619 11.32C183.246 10.6133 183.059 9.70667 183.059 8.6Z" fill="white"/>
</svg>
