<svg width="32" height="32" viewBox="0 0 32 32" fill="none" xmlns="http://www.w3.org/2000/svg">
<g id="new-twitter-rectangle">
<path id="Vector" fill-rule="evenodd" clip-rule="evenodd" d="M6.00004 2.3335C3.975 2.3335 2.33337 3.97512 2.33337 6.00016V26.0002C2.33337 28.0252 3.975 29.6668 6.00004 29.6668H26C28.0251 29.6668 29.6667 28.0252 29.6667 26.0002V6.00016C29.6667 3.97512 28.0251 2.3335 26 2.3335H6.00004ZM9.33337 8.3335C8.95785 8.3335 8.61397 8.54388 8.44301 8.87824C8.27205 9.2126 8.30283 9.61455 8.52269 9.91899L13.6155 16.9706L8.62627 21.9598C8.23575 22.3503 8.23575 22.9834 8.62627 23.3739C9.0168 23.7644 9.64996 23.7644 10.0405 23.3739L14.8016 18.6128L18.1523 23.2523C18.3403 23.5127 18.6419 23.6668 18.963 23.6668H22.6667C23.0422 23.6668 23.3862 23.4564 23.5571 23.122C23.728 22.7878 23.6972 22.3858 23.4774 22.0814L18.3846 15.0298L23.3738 10.0406C23.7643 9.65008 23.7643 9.01691 23.3738 8.62639C22.9832 8.23587 22.3502 8.23587 21.9596 8.62639L17.1984 13.3875L13.8478 8.748C13.6598 8.4877 13.3582 8.3335 13.0371 8.3335H9.33337Z" fill="white"/>
</g>
</svg>
